<svg width="16" height="16" viewBox="0 0 16 16" fill="none" xmlns="http://www.w3.org/2000/svg">
<path d="M9.03184 1.41659L10.3301 4.01313C10.5071 4.36721 10.9792 4.72128 11.3727 4.78029L13.7233 5.17371C15.2281 5.42943 15.5822 6.51132 14.5003 7.59321L12.6709 9.43242C12.366 9.73732 12.189 10.3373 12.2874 10.77L12.8086 13.042C13.2217 14.832 12.2677 15.5304 10.6842 14.596L8.48106 13.2879C8.07781 13.0518 7.42868 13.0518 7.02543 13.2879L4.81247 14.5862C3.22897 15.5205 2.27494 14.8222 2.68803 13.0322L3.2093 10.7602C3.30766 10.3373 3.13062 9.73732 2.82572 9.42259L1.00618 7.60304C-0.0757123 6.52115 0.278361 5.42943 1.78317 5.18354L4.13383 4.79013C4.52724 4.72128 4.99934 4.37704 5.17638 4.02297L6.47465 1.42643C7.17296 0.0101353 8.33353 0.0101352 9.03184 1.41659Z" fill="#ACACAC"/>
</svg>
